<svg xmlns="http://www.w3.org/2000/svg" xmlns:xlink="http://www.w3.org/1999/xlink" width="375" height="812" viewBox="0 0 375 812">
  <defs>
    <clipPath id="clip-path">
      <rect id="Rectangle" width="375" height="812" fill="#241e92"/>
    </clipPath>
    <clipPath id="clip-launch_image_1">
      <rect width="375" height="812"/>
    </clipPath>
  </defs>
  <g id="launch_image_1" data-name="launch_image – 1" clip-path="url(#clip-launch_image_1)">
    <rect width="375" height="812" fill="#fff"/>
    <g id="Group_2" data-name="Group 2">
      <path id="Rectangle-2" data-name="Rectangle" d="M0,0H375V812H0Z" fill="#881832"/>
      <g id="Group_2-2" data-name="Group 2" clip-path="url(#clip-path)">
        <path id="Path_4" data-name="Path 4" d="M4.029,50.995C74.566,10.982,284.548-2.772,335.455,96.048s-20.264,187.519,48.61,265.377,139,31.031,249.8,123.861,68.637,198.025,32.7,242.943-87.109,173.819-221.109,51.819-31-210-133.259-331.782S118.518,397.995,37.851,292.373-66.507,91.007,4.029,50.995Z" transform="translate(-245 56)" fill="rgba(198,152,62,0.51)"/>
        <path id="Path_4-2" data-name="Path 4" d="M90.6,20.048c70.537-40.013,193.947-22.82,244.854,76s-20.264,187.519,48.61,265.377S584.7,355.435,695.5,448.266s98.82,191.65,62.885,236.568S579.456,902.048,445.455,780.048s-31-210-133.259-331.782S118.518,397.995,37.851,292.373,20.065,60.061,90.6,20.048Z" transform="translate(202 -43)" fill="#c6983e"/>
      </g>
    </g>
  </g>
</svg>
